<svg width="716" height="817" xmlns="http://www.w3.org/2000/svg" xmlns:xlink="http://www.w3.org/1999/xlink" xml:space="preserve" overflow="hidden"><defs><linearGradient x1="3838.5" y1="2246" x2="3838.5" y2="1898" gradientUnits="userSpaceOnUse" spreadMethod="reflect" id="fill0"><stop offset="0" stop-color="#FFFFFF" stop-opacity="0"/><stop offset="0.18" stop-color="#FFFFFF" stop-opacity="0"/><stop offset="0.92" stop-color="#FFFFFF"/><stop offset="1" stop-color="#FFFFFF"/></linearGradient></defs><g transform="translate(-3480 -1469)"><path d="M3836 1898 3841 1898 3841 2246 3836 2246Z" fill="url(#fill0)" fill-rule="evenodd"/><path d="M3838.09 1844.51C3823.62 1844.51 3811.89 1855.94 3811.89 1870.05 3811.89 1884.16 3823.62 1895.59 3838.09 1895.59 3852.56 1895.59 3864.29 1884.16 3864.29 1870.05 3864.29 1855.94 3852.56 1844.51 3838.09 1844.51ZM4159.66 1691.66C4158.79 1691.52 4157.85 1691.66 4156.93 1692.19L3869.12 1859.28 3870.44 1863.46C3870.88 1865.56 3871.11 1867.75 3871.11 1869.98 3871.11 1887.85 3856.36 1902.34 3838.17 1902.34 3819.97 1902.34 3805.22 1887.85 3805.22 1869.98 3805.22 1867.75 3805.45 1865.56 3805.89 1863.46L3807.22 1859.25 3518.91 1693.72C3515.22 1691.6 3511.13 1695.72 3513.25 1699.4L3829.19 2243.59 3829.17 2243.59 3829.17 2243.6C3833.65 2251.33 3844.83 2251.31 3849.28 2243.56L4162.61 1697.85C4164.2 1695.09 4162.27 1692.09 4159.66 1691.66ZM3837.37 1469.24C3842.29 1469.23 3847.21 1470.48 3851.62 1473.02L4180.68 1661.95C4189.5 1667.02 4194.95 1676.41 4194.97 1686.57L4195.88 2062.89C4195.91 2074.98 4189.48 2086.18 4179.03 2092.24L3853.56 2281.2 3853.55 2281.21C3844.76 2286.31 3833.91 2286.34 3825.09 2281.28L3496.03 2092.34C3487.2 2087.28 3481.76 2077.89 3481.74 2067.73L3480.84 1691.39C3480.81 1679.3 3487.24 1668.1 3497.69 1662.04L3823.16 1473.08C3827.55 1470.53 3832.46 1469.25 3837.37 1469.24Z" fill="#FFFFFF" fill-rule="evenodd"/></g></svg>